<mxfile host="app.diagrams.net" agent="Mozilla/5.0 (Windows NT 10.0; Win64; x64) AppleWebKit/537.36 (KHTML, like Gecko) Chrome/130.0.0.0 Safari/537.36" version="24.8.4">
  <diagram name="Page-1" id="sEgDvBP6L-3OZACq7cLr">
    <mxGraphModel dx="1050" dy="603" grid="1" gridSize="10" guides="1" tooltips="1" connect="1" arrows="1" fold="1" page="1" pageScale="1" pageWidth="850" pageHeight="1100" math="0" shadow="0">
      <root>
        <mxCell id="0" />
        <mxCell id="1" parent="0" />
        <mxCell id="L4MwPs_Y2p_1Imb0e2nG-24" value="" style="shape=card;whiteSpace=wrap;html=1;" vertex="1" parent="1">
          <mxGeometry x="373" y="20" width="280" height="750" as="geometry" />
        </mxCell>
        <mxCell id="L4MwPs_Y2p_1Imb0e2nG-56" style="edgeStyle=orthogonalEdgeStyle;rounded=0;orthogonalLoop=1;jettySize=auto;html=1;exitX=0.5;exitY=0.5;exitDx=0;exitDy=0;exitPerimeter=0;entryX=0;entryY=0.5;entryDx=0;entryDy=0;" edge="1" parent="1" source="L4MwPs_Y2p_1Imb0e2nG-1" target="L4MwPs_Y2p_1Imb0e2nG-26">
          <mxGeometry relative="1" as="geometry" />
        </mxCell>
        <mxCell id="L4MwPs_Y2p_1Imb0e2nG-69" value="User" style="edgeLabel;html=1;align=center;verticalAlign=middle;resizable=0;points=[];" vertex="1" connectable="0" parent="L4MwPs_Y2p_1Imb0e2nG-56">
          <mxGeometry x="0.44" relative="1" as="geometry">
            <mxPoint as="offset" />
          </mxGeometry>
        </mxCell>
        <mxCell id="L4MwPs_Y2p_1Imb0e2nG-57" style="edgeStyle=orthogonalEdgeStyle;rounded=0;orthogonalLoop=1;jettySize=auto;html=1;exitX=0.5;exitY=0.5;exitDx=0;exitDy=0;exitPerimeter=0;entryX=0;entryY=0.5;entryDx=0;entryDy=0;" edge="1" parent="1" source="L4MwPs_Y2p_1Imb0e2nG-1" target="L4MwPs_Y2p_1Imb0e2nG-8">
          <mxGeometry relative="1" as="geometry">
            <Array as="points">
              <mxPoint x="300" y="110" />
              <mxPoint x="300" y="210" />
            </Array>
          </mxGeometry>
        </mxCell>
        <mxCell id="L4MwPs_Y2p_1Imb0e2nG-68" value="User" style="edgeLabel;html=1;align=center;verticalAlign=middle;resizable=0;points=[];" vertex="1" connectable="0" parent="L4MwPs_Y2p_1Imb0e2nG-57">
          <mxGeometry x="0.6145" y="2" relative="1" as="geometry">
            <mxPoint as="offset" />
          </mxGeometry>
        </mxCell>
        <mxCell id="L4MwPs_Y2p_1Imb0e2nG-58" style="edgeStyle=orthogonalEdgeStyle;rounded=0;orthogonalLoop=1;jettySize=auto;html=1;exitX=0.5;exitY=0.5;exitDx=0;exitDy=0;exitPerimeter=0;entryX=0;entryY=0.5;entryDx=0;entryDy=0;" edge="1" parent="1" source="L4MwPs_Y2p_1Imb0e2nG-1" target="L4MwPs_Y2p_1Imb0e2nG-17">
          <mxGeometry relative="1" as="geometry">
            <Array as="points">
              <mxPoint x="300" y="110" />
              <mxPoint x="300" y="410" />
            </Array>
          </mxGeometry>
        </mxCell>
        <mxCell id="L4MwPs_Y2p_1Imb0e2nG-65" value="User" style="edgeLabel;html=1;align=center;verticalAlign=middle;resizable=0;points=[];" vertex="1" connectable="0" parent="L4MwPs_Y2p_1Imb0e2nG-58">
          <mxGeometry x="0.7839" y="-1" relative="1" as="geometry">
            <mxPoint as="offset" />
          </mxGeometry>
        </mxCell>
        <mxCell id="L4MwPs_Y2p_1Imb0e2nG-59" style="edgeStyle=orthogonalEdgeStyle;rounded=0;orthogonalLoop=1;jettySize=auto;html=1;exitX=0.5;exitY=0.5;exitDx=0;exitDy=0;exitPerimeter=0;entryX=0;entryY=0.5;entryDx=0;entryDy=0;" edge="1" parent="1" source="L4MwPs_Y2p_1Imb0e2nG-1" target="L4MwPs_Y2p_1Imb0e2nG-25">
          <mxGeometry relative="1" as="geometry">
            <Array as="points">
              <mxPoint x="300" y="110" />
              <mxPoint x="300" y="520" />
            </Array>
          </mxGeometry>
        </mxCell>
        <mxCell id="L4MwPs_Y2p_1Imb0e2nG-66" value="User" style="edgeLabel;html=1;align=center;verticalAlign=middle;resizable=0;points=[];" vertex="1" connectable="0" parent="L4MwPs_Y2p_1Imb0e2nG-59">
          <mxGeometry x="0.7937" y="2" relative="1" as="geometry">
            <mxPoint as="offset" />
          </mxGeometry>
        </mxCell>
        <mxCell id="L4MwPs_Y2p_1Imb0e2nG-1" value="User&lt;div&gt;&lt;br&gt;&lt;/div&gt;" style="shape=umlActor;verticalLabelPosition=bottom;verticalAlign=top;html=1;outlineConnect=0;" vertex="1" parent="1">
          <mxGeometry x="130" y="80" width="30" height="60" as="geometry" />
        </mxCell>
        <mxCell id="L4MwPs_Y2p_1Imb0e2nG-62" style="edgeStyle=orthogonalEdgeStyle;rounded=0;orthogonalLoop=1;jettySize=auto;html=1;exitX=0.5;exitY=0.5;exitDx=0;exitDy=0;exitPerimeter=0;entryX=0;entryY=0.75;entryDx=0;entryDy=0;" edge="1" parent="1" source="L4MwPs_Y2p_1Imb0e2nG-5" target="L4MwPs_Y2p_1Imb0e2nG-26">
          <mxGeometry relative="1" as="geometry">
            <Array as="points">
              <mxPoint x="230" y="510" />
              <mxPoint x="230" y="125" />
            </Array>
          </mxGeometry>
        </mxCell>
        <mxCell id="L4MwPs_Y2p_1Imb0e2nG-70" value="Farmer" style="edgeLabel;html=1;align=center;verticalAlign=middle;resizable=0;points=[];" vertex="1" connectable="0" parent="L4MwPs_Y2p_1Imb0e2nG-62">
          <mxGeometry x="0.7717" y="-1" relative="1" as="geometry">
            <mxPoint as="offset" />
          </mxGeometry>
        </mxCell>
        <mxCell id="L4MwPs_Y2p_1Imb0e2nG-63" style="edgeStyle=orthogonalEdgeStyle;rounded=0;orthogonalLoop=1;jettySize=auto;html=1;exitX=0.5;exitY=0.5;exitDx=0;exitDy=0;exitPerimeter=0;entryX=0;entryY=0.75;entryDx=0;entryDy=0;" edge="1" parent="1" source="L4MwPs_Y2p_1Imb0e2nG-5" target="L4MwPs_Y2p_1Imb0e2nG-29">
          <mxGeometry relative="1" as="geometry">
            <Array as="points">
              <mxPoint x="230" y="510" />
              <mxPoint x="230" y="625" />
            </Array>
          </mxGeometry>
        </mxCell>
        <mxCell id="L4MwPs_Y2p_1Imb0e2nG-71" value="Farmer" style="edgeLabel;html=1;align=center;verticalAlign=middle;resizable=0;points=[];" vertex="1" connectable="0" parent="L4MwPs_Y2p_1Imb0e2nG-63">
          <mxGeometry x="0.6087" y="-2" relative="1" as="geometry">
            <mxPoint as="offset" />
          </mxGeometry>
        </mxCell>
        <mxCell id="L4MwPs_Y2p_1Imb0e2nG-64" style="edgeStyle=orthogonalEdgeStyle;rounded=0;orthogonalLoop=1;jettySize=auto;html=1;exitX=0.5;exitY=0.5;exitDx=0;exitDy=0;exitPerimeter=0;entryX=0;entryY=0.5;entryDx=0;entryDy=0;" edge="1" parent="1" source="L4MwPs_Y2p_1Imb0e2nG-5" target="L4MwPs_Y2p_1Imb0e2nG-16">
          <mxGeometry relative="1" as="geometry">
            <Array as="points">
              <mxPoint x="230" y="510" />
              <mxPoint x="230" y="310" />
            </Array>
          </mxGeometry>
        </mxCell>
        <mxCell id="L4MwPs_Y2p_1Imb0e2nG-67" value="Farmer" style="edgeLabel;html=1;align=center;verticalAlign=middle;resizable=0;points=[];" vertex="1" connectable="0" parent="L4MwPs_Y2p_1Imb0e2nG-64">
          <mxGeometry x="0.6962" y="2" relative="1" as="geometry">
            <mxPoint as="offset" />
          </mxGeometry>
        </mxCell>
        <mxCell id="L4MwPs_Y2p_1Imb0e2nG-72" style="edgeStyle=orthogonalEdgeStyle;rounded=0;orthogonalLoop=1;jettySize=auto;html=1;exitX=0.5;exitY=0.5;exitDx=0;exitDy=0;exitPerimeter=0;entryX=0;entryY=0.75;entryDx=0;entryDy=0;" edge="1" parent="1" source="L4MwPs_Y2p_1Imb0e2nG-5" target="L4MwPs_Y2p_1Imb0e2nG-8">
          <mxGeometry relative="1" as="geometry">
            <Array as="points">
              <mxPoint x="230" y="510" />
              <mxPoint x="230" y="225" />
            </Array>
          </mxGeometry>
        </mxCell>
        <mxCell id="L4MwPs_Y2p_1Imb0e2nG-73" value="Farmer" style="edgeLabel;html=1;align=center;verticalAlign=middle;resizable=0;points=[];" vertex="1" connectable="0" parent="L4MwPs_Y2p_1Imb0e2nG-72">
          <mxGeometry x="0.7683" relative="1" as="geometry">
            <mxPoint as="offset" />
          </mxGeometry>
        </mxCell>
        <mxCell id="L4MwPs_Y2p_1Imb0e2nG-5" value="Farmer" style="shape=umlActor;verticalLabelPosition=bottom;verticalAlign=top;html=1;outlineConnect=0;" vertex="1" parent="1">
          <mxGeometry x="120" y="480" width="30" height="60" as="geometry" />
        </mxCell>
        <mxCell id="L4MwPs_Y2p_1Imb0e2nG-8" value="Sign up" style="rounded=0;whiteSpace=wrap;html=1;" vertex="1" parent="1">
          <mxGeometry x="430" y="180" width="150" height="60" as="geometry" />
        </mxCell>
        <mxCell id="L4MwPs_Y2p_1Imb0e2nG-74" style="edgeStyle=orthogonalEdgeStyle;rounded=0;orthogonalLoop=1;jettySize=auto;html=1;exitX=0.5;exitY=0.5;exitDx=0;exitDy=0;exitPerimeter=0;entryX=1;entryY=0.5;entryDx=0;entryDy=0;" edge="1" parent="1" source="L4MwPs_Y2p_1Imb0e2nG-9" target="L4MwPs_Y2p_1Imb0e2nG-26">
          <mxGeometry relative="1" as="geometry">
            <Array as="points">
              <mxPoint x="680" y="280" />
              <mxPoint x="680" y="110" />
            </Array>
          </mxGeometry>
        </mxCell>
        <mxCell id="L4MwPs_Y2p_1Imb0e2nG-76" style="edgeStyle=orthogonalEdgeStyle;rounded=0;orthogonalLoop=1;jettySize=auto;html=1;exitX=0.5;exitY=0.5;exitDx=0;exitDy=0;exitPerimeter=0;" edge="1" parent="1" source="L4MwPs_Y2p_1Imb0e2nG-9" target="L4MwPs_Y2p_1Imb0e2nG-16">
          <mxGeometry relative="1" as="geometry" />
        </mxCell>
        <mxCell id="L4MwPs_Y2p_1Imb0e2nG-77" style="edgeStyle=orthogonalEdgeStyle;rounded=0;orthogonalLoop=1;jettySize=auto;html=1;exitX=0.5;exitY=0.5;exitDx=0;exitDy=0;exitPerimeter=0;entryX=1;entryY=0.5;entryDx=0;entryDy=0;" edge="1" parent="1" source="L4MwPs_Y2p_1Imb0e2nG-9" target="L4MwPs_Y2p_1Imb0e2nG-29">
          <mxGeometry relative="1" as="geometry">
            <Array as="points">
              <mxPoint x="680" y="280" />
              <mxPoint x="680" y="610" />
            </Array>
          </mxGeometry>
        </mxCell>
        <mxCell id="L4MwPs_Y2p_1Imb0e2nG-78" style="edgeStyle=orthogonalEdgeStyle;rounded=0;orthogonalLoop=1;jettySize=auto;html=1;exitX=0.5;exitY=0.5;exitDx=0;exitDy=0;exitPerimeter=0;entryX=1;entryY=0.5;entryDx=0;entryDy=0;" edge="1" parent="1" source="L4MwPs_Y2p_1Imb0e2nG-9" target="L4MwPs_Y2p_1Imb0e2nG-17">
          <mxGeometry relative="1" as="geometry">
            <Array as="points">
              <mxPoint x="680" y="280" />
              <mxPoint x="680" y="410" />
            </Array>
          </mxGeometry>
        </mxCell>
        <mxCell id="L4MwPs_Y2p_1Imb0e2nG-79" style="edgeStyle=orthogonalEdgeStyle;rounded=0;orthogonalLoop=1;jettySize=auto;html=1;exitX=0.5;exitY=0.5;exitDx=0;exitDy=0;exitPerimeter=0;entryX=1;entryY=0.5;entryDx=0;entryDy=0;" edge="1" parent="1" source="L4MwPs_Y2p_1Imb0e2nG-9" target="L4MwPs_Y2p_1Imb0e2nG-25">
          <mxGeometry relative="1" as="geometry">
            <mxPoint x="680" y="640" as="targetPoint" />
            <Array as="points">
              <mxPoint x="681" y="280" />
              <mxPoint x="681" y="520" />
            </Array>
          </mxGeometry>
        </mxCell>
        <mxCell id="L4MwPs_Y2p_1Imb0e2nG-9" value="Admin" style="shape=umlActor;verticalLabelPosition=bottom;verticalAlign=top;html=1;outlineConnect=0;" vertex="1" parent="1">
          <mxGeometry x="780" y="250" width="30" height="60" as="geometry" />
        </mxCell>
        <mxCell id="L4MwPs_Y2p_1Imb0e2nG-16" value="Vendre" style="rounded=0;whiteSpace=wrap;html=1;" vertex="1" parent="1">
          <mxGeometry x="430" y="280" width="150" height="60" as="geometry" />
        </mxCell>
        <mxCell id="L4MwPs_Y2p_1Imb0e2nG-17" value="Achat" style="rounded=0;whiteSpace=wrap;html=1;" vertex="1" parent="1">
          <mxGeometry x="430" y="380" width="150" height="60" as="geometry" />
        </mxCell>
        <mxCell id="L4MwPs_Y2p_1Imb0e2nG-25" value="Avis(Rate/Message)" style="rounded=0;whiteSpace=wrap;html=1;" vertex="1" parent="1">
          <mxGeometry x="435" y="490" width="150" height="60" as="geometry" />
        </mxCell>
        <mxCell id="L4MwPs_Y2p_1Imb0e2nG-26" value="Log In" style="rounded=0;whiteSpace=wrap;html=1;" vertex="1" parent="1">
          <mxGeometry x="435" y="80" width="150" height="60" as="geometry" />
        </mxCell>
        <mxCell id="L4MwPs_Y2p_1Imb0e2nG-29" value="Poster Produit(Offer)" style="rounded=0;whiteSpace=wrap;html=1;" vertex="1" parent="1">
          <mxGeometry x="435" y="580" width="150" height="60" as="geometry" />
        </mxCell>
      </root>
    </mxGraphModel>
  </diagram>
</mxfile>
